<?xml version="1.0" encoding="UTF-8" standalone="no"?>
<!-- Generator: Adobe Illustrator 17.0.1, SVG Export Plug-In . SVG Version: 6.00 Build 0)  -->

<svg
   xmlns:dc="http://purl.org/dc/elements/1.1/"
   xmlns:cc="http://creativecommons.org/ns#"
   xmlns:rdf="http://www.w3.org/1999/02/22-rdf-syntax-ns#"
   xmlns:svg="http://www.w3.org/2000/svg"
   xmlns="http://www.w3.org/2000/svg"
   xmlns:sodipodi="http://sodipodi.sourceforge.net/DTD/sodipodi-0.dtd"
   xmlns:inkscape="http://www.inkscape.org/namespaces/inkscape"
   version="1.1"
   x="0px"
   y="0px"
   width="86px"
   height="86px"
   viewBox="0 0 86 86"
   enable-background="new 0 0 86 86"
   xml:space="preserve"
   id="svg46"
   sodipodi:docname="icon-airmeteo.svg"
   inkscape:version="0.92.2 (5c3e80d, 2017-08-06)"><metadata
     id="metadata52"><rdf:RDF><cc:Work
         rdf:about=""><dc:format>image/svg+xml</dc:format><dc:type
           rdf:resource="http://purl.org/dc/dcmitype/StillImage" /><dc:title></dc:title></cc:Work></rdf:RDF></metadata><defs
     id="defs50"><inkscape:path-effect
       effect="bspline"
       id="path-effect4593"
       is_visible="true"
       weight="33.333333"
       steps="2"
       helper_size="0"
       apply_no_weight="true"
       apply_with_weight="true"
       only_selected="false" /><inkscape:path-effect
       effect="spiro"
       id="path-effect4589"
       is_visible="true" /></defs><sodipodi:namedview
     pagecolor="#ffffff"
     bordercolor="#666666"
     borderopacity="1"
     objecttolerance="10"
     gridtolerance="10"
     guidetolerance="10"
     inkscape:pageopacity="0"
     inkscape:pageshadow="2"
     inkscape:window-width="1920"
     inkscape:window-height="1017"
     id="namedview48"
     showgrid="false"
     inkscape:zoom="5.6568543"
     inkscape:cx="-4.8841365"
     inkscape:cy="46.639021"
     inkscape:window-x="1358"
     inkscape:window-y="-8"
     inkscape:window-maximized="1"
     inkscape:current-layer="Layer_1" /><g
     id="Layer_2"
     display="none" /><g
     id="Layer_1"><g
       id="g11"><path
         fill="#FFC8A0"
         d="M41.423,85.606c-0.195-0.009-0.407-0.02-0.635-0.033C40.996,85.588,41.21,85.596,41.423,85.606z"
         id="path3" /><path
         fill="#FFC8A0"
         d="M41.812,85.623c0.38,0.01,0.757,0.029,1.139,0.029c-0.526,0-1.028-0.021-1.528-0.045    C41.564,85.613,41.69,85.618,41.812,85.623z"
         id="path5" /><path
         fill="#FFC8A0"
         d="M0.378,45.164c-0.013-0.228-0.024-0.44-0.033-0.635C0.355,44.741,0.364,44.955,0.378,45.164z"
         id="path7" /><path
         fill="#FFC8A0"
         d="M0.329,44.139c0.005,0.123,0.01,0.249,0.016,0.389C0.321,44.028,0.3,43.526,0.3,43    C0.3,43.382,0.319,43.759,0.329,44.139z"
         id="path9" /></g><linearGradient
       id="SVGID_1_"
       gradientUnits="userSpaceOnUse"
       x1="12.7851"
       y1="73.1519"
       x2="85.1792"
       y2="0.7578"><stop
         offset="0"
         style="stop-color:#F5E7B8"
         id="stop13" /><stop
         offset="0.9951"
         style="stop-color:#E6D695"
         id="stop15" /></linearGradient><path
       d="m 84.100733,85.607791 c 0.785,0 1.422,-0.637 1.422,-1.422 V 1.7267911 c -0.001,-0.785 -0.637,-1.422 -1.422,-1.422 h -41.23 c -23.556,0 -42.65099992,19.0959999 -42.65099992,42.6509999 v 41.23 c 0,0.785 0.696,1.422 1.48100002,1.422 z"
       id="path18"
       style="fill:#03719c;fill-opacity:0.85530551"
       inkscape:connector-curvature="0" /><path
       style="fill:#ffffff;fill-opacity:1;fill-rule:evenodd;stroke:none;stroke-width:0.92335331px;stroke-linecap:butt;stroke-linejoin:miter;stroke-opacity:1"
       d="m 42.116658,24.154255 -0.118962,10.706649 12.372032,3.44992 0.118962,-17.130638 z"
       id="path4661"
       inkscape:connector-curvature="0"
       sodipodi:nodetypes="ccccc" /><path
       sodipodi:nodetypes="ccccc"
       inkscape:connector-curvature="0"
       id="path4663"
       d="m 54.452223,21.185438 -0.0989,17.193782 10.28615,5.540216 0.09891,-27.510048 z"
       style="fill:#fa4224;fill-opacity:1;fill-rule:evenodd;stroke:none;stroke-width:1.06692207px;stroke-linecap:butt;stroke-linejoin:miter;stroke-opacity:1" /><path
       sodipodi:nodetypes="ccccc"
       inkscape:connector-curvature="0"
       id="path4665"
       d="m 24.244576,27.059415 -0.07828,4.347113 8.140614,1.400736 0.07828,-6.955381 z"
       style="fill:#ffffff;fill-opacity:1;fill-rule:evenodd;stroke:none;stroke-width:0.47725409px;stroke-linecap:butt;stroke-linejoin:miter;stroke-opacity:1" /><path
       style="fill:#fa4224;fill-opacity:1;fill-rule:evenodd;stroke:none;stroke-width:0.67848927px;stroke-linecap:butt;stroke-linejoin:miter;stroke-opacity:1"
       d="m 32.348723,25.849815 -0.0989,6.953317 10.28615,2.240511 0.09891,-11.125304 z"
       id="path4667"
       inkscape:connector-curvature="0"
       sodipodi:nodetypes="ccccc" /><path
       style="fill:#fa4224;fill-opacity:1;fill-rule:evenodd;stroke:none;stroke-width:0.38009781px;stroke-linecap:butt;stroke-linejoin:miter;stroke-opacity:1"
       d="m 16.103963,27.810435 -0.07828,2.757354 8.140613,0.88848 0.07828,-4.411765 z"
       id="path4669"
       inkscape:connector-curvature="0"
       sodipodi:nodetypes="ccccc" /><rect
       style="opacity:1;fill:#e6e6e6;fill-opacity:1;stroke:none;stroke-width:2.91000652;stroke-linecap:round;stroke-linejoin:round;stroke-miterlimit:4;stroke-dasharray:none;stroke-opacity:1;paint-order:stroke fill markers"
       id="rect4671"
       width="5.4794393"
       height="64.731674"
       x="65.53257"
       y="16.375107"
       ry="5.4071536" /></g></svg>